<mxfile host="app.diagrams.net" agent="Mozilla/5.0 (Windows NT 10.0; Win64; x64) AppleWebKit/537.36 (KHTML, like Gecko) Chrome/133.0.0.0 Safari/537.36" version="26.1.1">
  <diagram name="Page-1" id="JHK4Q6-67JAz9OO-pVOG">
    <mxGraphModel dx="875" dy="503" grid="1" gridSize="10" guides="1" tooltips="1" connect="1" arrows="1" fold="1" page="1" pageScale="1" pageWidth="827" pageHeight="1169" math="0" shadow="0">
      <root>
        <mxCell id="0" />
        <mxCell id="1" parent="0" />
        <mxCell id="vpJE5EPXxcW1dItZ5YGT-2" value="frame" style="shape=umlFrame;whiteSpace=wrap;html=1;pointerEvents=0;" vertex="1" parent="1">
          <mxGeometry y="40" width="1493.33" height="800" as="geometry" />
        </mxCell>
        <mxCell id="vpJE5EPXxcW1dItZ5YGT-3" value="Client" style="shape=umlActor;verticalLabelPosition=bottom;verticalAlign=top;html=1;" vertex="1" parent="1">
          <mxGeometry x="50" y="210" width="30" height="60" as="geometry" />
        </mxCell>
        <mxCell id="vpJE5EPXxcW1dItZ5YGT-5" value="S&#39;inscrire" style="ellipse;whiteSpace=wrap;html=1;" vertex="1" parent="1">
          <mxGeometry x="170" y="60" width="140" height="70" as="geometry" />
        </mxCell>
        <mxCell id="vpJE5EPXxcW1dItZ5YGT-6" value="se connecter" style="ellipse;whiteSpace=wrap;html=1;" vertex="1" parent="1">
          <mxGeometry x="170" y="160" width="140" height="70" as="geometry" />
        </mxCell>
        <mxCell id="vpJE5EPXxcW1dItZ5YGT-7" value="Rechercher un professionel" style="ellipse;whiteSpace=wrap;html=1;" vertex="1" parent="1">
          <mxGeometry x="170" y="250" width="140" height="70" as="geometry" />
        </mxCell>
        <mxCell id="vpJE5EPXxcW1dItZ5YGT-8" value="Consulter un profil" style="ellipse;whiteSpace=wrap;html=1;" vertex="1" parent="1">
          <mxGeometry x="170" y="330" width="140" height="70" as="geometry" />
        </mxCell>
        <mxCell id="vpJE5EPXxcW1dItZ5YGT-9" value="noter un professsionel" style="ellipse;whiteSpace=wrap;html=1;" vertex="1" parent="1">
          <mxGeometry x="170" y="420" width="140" height="70" as="geometry" />
        </mxCell>
      </root>
    </mxGraphModel>
  </diagram>
</mxfile>
